<!DOCTYPE svg PUBLIC "-//W3C//DTD SVG 1.1//EN" "http://www.w3.org/Graphics/SVG/1.1/DTD/svg11.dtd"><svg xmlns:ev="http://www.w3.org/2001/xml-events" xmlns:xlink="http://www.w3.org/1999/xlink" xmlns="http://www.w3.org/2000/svg" xmlns:v="http://schemas.microsoft.com/visio/2003/SVGExtensions/" width="485.91264" height="54.313344" xml:space="preserve" color-interpolation-filters="sRGB" class="st8" version="1.1">  
 <style type="text/css">
	<![CDATA[
		.st1 {fill:#000000;font-family:Arial,Helvetica,sans-serif;font-size:0.666664em}
		.st2 {fill:#ffffff;visibility:hidden}
		.st3 {stroke:#000000;stroke-linecap:butt;stroke-width:0.8}
		.st4 {stroke:#000000;stroke-dasharray:0.25,0.5;stroke-linecap:butt;stroke-width:0.25}
		.st5 {fill:none;stroke:none;stroke-linecap:round;stroke-linejoin:round;stroke-width:0.0169691}
		.st6 {font-size:1em}
		.st7 {fill:none;stroke:none;stroke-linecap:butt;stroke-width:0.5}
		.st8 {fill:none;fill-rule:evenodd;font-size:12px;overflow:visible;stroke-linecap:square;stroke-miterlimit:3}
	]]>
	</style> 
 <g> 
  <title>Page-1</title>  
  <g id="shape2-1" transform="translate(0.8,-29.1465)"> 
   <title>Sheet.2</title> 
   <desc>
    31
   </desc>   
   <text x="1.22" y="37.47" class="st1">
    31
   </text> 
  </g> 
  <g id="shape3-3" transform="translate(12.1386,-29.1465)"> 
   <title>Sheet.3</title> 
   <desc>
    30
   </desc>   
   <text x="1.22" y="37.47" class="st1">
    30
   </text> 
  </g> 
  <g id="shape4-5" transform="translate(23.4772,-29.1465)"> 
   <title>Sheet.4</title> 
   <desc>
    29
   </desc>   
   <text x="1.22" y="37.47" class="st1">
    29
   </text> 
  </g> 
  <g id="shape5-7" transform="translate(34.8157,-29.1465)"> 
   <title>Sheet.5</title> 
   <desc>
    28
   </desc>   
   <text x="1.22" y="37.47" class="st1">
    28
   </text> 
  </g> 
  <g id="shape6-9" transform="translate(46.1543,-29.1465)"> 
   <title>Sheet.6</title> 
   <desc>
    27
   </desc>   
   <text x="1.22" y="37.47" class="st1">
    27
   </text> 
  </g> 
  <g id="shape7-11" transform="translate(57.4929,-29.1465)"> 
   <title>Sheet.7</title> 
   <desc>
    26
   </desc>   
   <text x="1.22" y="37.47" class="st1">
    26
   </text> 
  </g> 
  <g id="shape8-13" transform="translate(68.8315,-29.1465)"> 
   <title>Sheet.8</title> 
   <desc>
    25
   </desc>   
   <text x="1.22" y="37.47" class="st1">
    25
   </text> 
  </g> 
  <g id="shape9-15" transform="translate(80.1701,-29.1465)"> 
   <title>Sheet.9</title> 
   <desc>
    24
   </desc>   
   <text x="1.22" y="37.47" class="st1">
    24
   </text> 
  </g> 
  <g id="shape10-17" transform="translate(193.556,-29.1465)"> 
   <title>Sheet.10</title> 
   <desc>
    14
   </desc>   
   <text x="1.22" y="37.47" class="st1">
    14
   </text> 
  </g> 
  <g id="shape11-19" transform="translate(204.894,-29.1465)"> 
   <title>Sheet.11</title> 
   <desc>
    13
   </desc>   
   <text x="1.22" y="37.47" class="st1">
    13
   </text> 
  </g> 
  <g id="shape12-21" transform="translate(216.233,-29.1465)"> 
   <title>Sheet.12</title> 
   <desc>
    12
   </desc>   
   <text x="1.22" y="37.47" class="st1">
    12
   </text> 
  </g> 
  <g id="shape13-23" transform="translate(227.572,-29.1465)"> 
   <title>Sheet.13</title> 
   <desc>
    11
   </desc>   
   <text x="1.22" y="37.47" class="st1">
    11
   </text> 
  </g> 
  <g id="shape14-25" transform="translate(238.91,-29.1465)"> 
   <title>Sheet.14</title> 
   <desc>
    10
   </desc>   
   <text x="1.22" y="37.47" class="st1">
    10
   </text> 
  </g> 
  <g id="shape15-27" transform="translate(318.28,-29.1465)"> 
   <title>Sheet.15</title> 
   <desc>
    3
   </desc>   
   <text x="3.44" y="37.47" class="st1">
    3
   </text> 
  </g> 
  <g id="shape16-29" transform="translate(329.619,-29.1465)"> 
   <title>Sheet.16</title> 
   <desc>
    2
   </desc>   
   <text x="3.44" y="37.47" class="st1">
    2
   </text> 
  </g> 
  <g id="shape17-31" transform="translate(340.957,-29.1465)"> 
   <title>Sheet.17</title> 
   <desc>
    1
   </desc>   
   <text x="3.44" y="37.47" class="st1">
    1
   </text> 
  </g> 
  <g id="shape18-33" transform="translate(352.296,-29.1465)"> 
   <title>Sheet.18</title> 
   <desc>
    0
   </desc>   
   <text x="3.44" y="37.47" class="st1">
    0
   </text> 
  </g> 
  <g id="shape19-35" transform="translate(0.8,-0.8)"> 
   <title>Sheet.19</title> 
   <rect x="0" y="12.3886" width="362.835" height="28.3465" class="st2" /> 
   <rect x="0" y="12.3886" width="362.835" height="28.3465" class="st3" /> 
  </g> 
  <g id="shape20-38" transform="translate(12.1386,-0.8)"> 
   <title>Sheet.20</title> 
   <path d="M0 12.39 L0 40.74" class="st3" /> 
  </g> 
  <g id="shape21-41" transform="translate(23.4772,-0.8)"> 
   <title>Sheet.21</title> 
   <path d="M0 12.39 L0 40.74" class="st3" /> 
  </g> 
  <g id="shape22-44" transform="translate(34.8157,-0.8)"> 
   <title>Sheet.22</title> 
   <path d="M0 12.39 L0 40.74" class="st3" /> 
  </g> 
  <g id="shape23-47" transform="translate(46.1543,-0.8)"> 
   <title>Sheet.23</title> 
   <path d="M0 12.39 L0 40.74" class="st3" /> 
  </g> 
  <g id="shape25-50" transform="translate(80.1701,-0.8)"> 
   <title>Sheet.25</title> 
   <path d="M0 12.39 L0 40.74" class="st3" /> 
  </g> 
  <g id="shape33-53" transform="translate(41.535,0.25) rotate(90)"> 
   <title>Signal 0.108</title> 
   <path d="M0 40.74 L11.34 40.74" class="st4" /> 
  </g> 
  <g id="shape34-56" transform="translate(404.37,0.25) rotate(90)"> 
   <title>Signal 0.109</title> 
   <path d="M0 40.74 L11.34 40.74" class="st4" /> 
  </g> 
  <g id="shape35-59" transform="translate(148.202,-29.1465)"> 
   <title>32-bit register.176</title> 
   <desc>
    18
   </desc>   
   <text x="1.22" y="37.47" class="st1">
    18
   </text> 
  </g> 
  <g id="shape37-61" transform="translate(114.186,-29.1465)"> 
   <title>32-bit register.186</title> 
   <desc>
    21
   </desc>   
   <text x="1.22" y="37.47" class="st1">
    21
   </text> 
  </g> 
  <g id="shape38-63" transform="translate(125.524,-29.1465)"> 
   <title>32-bit register.187</title> 
   <desc>
    20
   </desc>   
   <text x="1.22" y="37.47" class="st1">
    20
   </text> 
  </g> 
  <g id="shape39-65" transform="translate(136.863,-29.1465)"> 
   <title>32-bit register.188</title> 
   <desc>
    19
   </desc>   
   <text x="1.22" y="37.47" class="st1">
    19
   </text> 
  </g> 
  <g id="shape40-67" transform="translate(125.524,-0.8)"> 
   <title>32-bit Register.189</title> 
   <path d="M0 12.39 L0 40.74" class="st3" /> 
  </g> 
  <g id="shape41-70" transform="translate(136.863,-0.8)"> 
   <title>32-bit Register.190</title> 
   <path d="M0 12.39 L0 40.74" class="st3" /> 
  </g> 
  <g id="shape42-73" transform="translate(250.249,-29.1465)"> 
   <title>32-bit register.203</title> 
   <desc>
    9
   </desc>   
   <text x="3.44" y="37.47" class="st1">
    9
   </text> 
  </g> 
  <g id="shape43-75" transform="translate(250.249,-0.8)"> 
   <title>32-bit register.205</title> 
   <path d="M0 12.39 L0 40.74" class="st3" /> 
  </g> 
  <g id="shape44-78" transform="translate(148.202,-0.8)"> 
   <title>Sheet.44</title>  
   <rect x="0" y="12.3886" width="56.6929" height="28.3465" class="st5" /> 
  </g> 
  <g id="shape45-80" transform="translate(57.4929,-0.8)"> 
   <title>32-bit Register.25</title> 
   <path d="M0 12.39 L0 40.74" class="st3" /> 
  </g> 
  <g id="shape46-83" transform="translate(91.5087,-0.8)"> 
   <title>32-bit Register.212</title> 
   <path d="M0 12.39 L0 40.74" class="st3" /> 
  </g> 
  <g id="shape49-86" transform="translate(102.847,-29.1465)"> 
   <title>32-bit register.219</title> 
   <desc>
    22
   </desc>   
   <text x="1.22" y="37.47" class="st1">
    2
    <tspan class="st6">
     2
    </tspan>
   </text> 
  </g> 
  <g id="shape52-89" transform="translate(182.217,-0.8)"> 
   <title>32-bit Register.226</title> 
   <path d="M0 12.39 L0 40.74" class="st3" /> 
  </g> 
  <g id="shape54-92" transform="translate(261.587,-0.8)"> 
   <title>32-bit Register.43</title> 
   <path d="M0 12.39 L0 40.74" class="st3" /> 
  </g> 
  <g id="shape55-95" transform="translate(272.926,-0.8)"> 
   <title>32-bit Register.44</title> 
   <path d="M0 12.39 L0 40.74" class="st3" /> 
  </g> 
  <g id="shape56-98" transform="translate(284.265,-0.8)"> 
   <title>32-bit Register.45</title> 
   <path d="M0 12.39 L0 40.74" class="st3" /> 
  </g> 
  <g id="shape57-101" transform="translate(295.603,-0.8)"> 
   <title>32-bit Register.46</title> 
   <path d="M0 12.39 L0 40.74" class="st3" /> 
  </g> 
  <g id="shape58-104" transform="translate(306.942,-0.8)"> 
   <title>32-bit Register.48</title> 
   <path d="M0 12.39 L0 40.74" class="st3" /> 
  </g> 
  <g id="shape59-107" transform="translate(318.28,-0.8)"> 
   <title>32-bit Register.49</title> 
   <path d="M0 12.39 L0 40.74" class="st3" /> 
  </g> 
  <g id="shape60-110" transform="translate(306.942,-29.1465)"> 
   <title>32-bit Register.15</title> 
   <desc>
    4
   </desc>   
   <text x="3.44" y="37.47" class="st1">
    4
   </text> 
  </g> 
  <g id="shape61-112" transform="translate(295.603,-29.1465)"> 
   <title>32-bit Register.51</title> 
   <desc>
    5
   </desc>   
   <text x="3.44" y="37.47" class="st1">
    5
   </text> 
  </g> 
  <g id="shape62-114" transform="translate(284.265,-29.1465)"> 
   <title>32-bit Register.52</title> 
   <desc>
    6
   </desc>   
   <text x="3.44" y="37.47" class="st1">
    6
   </text> 
  </g> 
  <g id="shape63-116" transform="translate(272.926,-29.1465)"> 
   <title>32-bit Register.53</title> 
   <desc>
    7
   </desc>   
   <text x="3.44" y="37.47" class="st1">
    7
   </text> 
  </g> 
  <g id="shape64-118" transform="translate(261.587,-29.1465)"> 
   <title>32-bit Register.54</title> 
   <desc>
    8
   </desc>   
   <text x="3.44" y="37.47" class="st1">
    8
   </text> 
  </g> 
  <g id="shape65-120" transform="translate(182.217,-29.1465)"> 
   <title>32-bit Register.10</title> 
   <desc>
    15
   </desc>   
   <text x="1.22" y="37.47" class="st1">
    15
   </text> 
  </g> 
  <g id="shape66-122" transform="translate(170.879,-29.1465)"> 
   <title>32-bit Register.56</title> 
   <desc>
    16
   </desc>   
   <text x="1.22" y="37.47" class="st1">
    16
   </text> 
  </g> 
  <g id="shape67-124" transform="translate(159.54,-29.1465)"> 
   <title>32-bit Register.57</title> 
   <desc>
    17
   </desc>   
   <text x="1.22" y="37.47" class="st1">
    17
   </text> 
  </g> 
  <g id="shape68-126" transform="translate(91.5087,-29.1465)"> 
   <title>32-bit Register.58</title> 
   <desc>
    23
   </desc>   
   <text x="1.22" y="37.47" class="st1">
    23
   </text> 
  </g> 
  <g id="shape1-128" transform="translate(0.8,-0.8)"> 
   <title>Sheet.1</title> 
   <desc>
    N
   </desc>   
   <rect x="0" y="12.3886" width="11.3386" height="28.3465" class="st7" /> 
   <text x="2.78" y="28.96" class="st1">
    N
   </text> 
  </g> 
  <g id="shape70-131" transform="translate(12.1386,-0.8)"> 
   <title>Sheet.70</title> 
   <desc>
    Z
   </desc>   
   <rect x="0" y="12.3886" width="11.3386" height="28.3465" class="st7" /> 
   <text x="3.23" y="28.96" class="st1">
    Z
   </text> 
  </g> 
  <g id="shape71-134" transform="translate(23.4772,-0.8)"> 
   <title>Sheet.71</title> 
   <desc>
    C
   </desc>   
   <rect x="0" y="12.3886" width="11.3386" height="28.3465" class="st7" /> 
   <text x="2.78" y="28.96" class="st1">
    C
   </text> 
  </g> 
  <g id="shape72-137" transform="translate(34.8157,-0.8)"> 
   <title>Sheet.72</title> 
   <desc>
    V
   </desc>   
   <rect x="0" y="12.3886" width="11.3386" height="28.3465" class="st7" /> 
   <text x="3" y="28.96" class="st1">
    V
   </text> 
  </g> 
  <g id="shape73-140" transform="translate(46.1543,-0.8)"> 
   <title>Sheet.73</title> 
   <desc>
    Q
   </desc>   
   <rect x="0" y="12.3886" width="11.3386" height="28.3465" class="st7" /> 
   <text x="2.56" y="28.96" class="st1">
    Q
   </text> 
  </g> 
  <g id="shape145-143" transform="translate(57.4929,-0.8)"> 
   <title>Sheet.145</title> 
   <desc>
    IT
   </desc>   
   <rect x="0" y="12.3886" width="22.6772" height="28.3465" class="st7" /> 
   <text x="7.78" y="28.96" class="st1">
    IT
   </text> 
  </g> 
  <g id="shape146-146" transform="translate(80.1701,-0.8)"> 
   <title>Sheet.146</title> 
   <desc>
    J
   </desc>   
   <rect x="0" y="12.3886" width="11.3386" height="28.3465" class="st7" /> 
   <text x="3.67" y="28.96" class="st1">
    J
   </text> 
  </g> 
  <g id="shape47-149" transform="translate(125.524,-0.8)"> 
   <title>Sheet.47</title> 
   <desc>
    IL
   </desc>   
   <rect x="0" y="12.3886" width="11.3386" height="28.3465" class="st7" /> 
   <text x="2.33" y="28.96" class="st1">
    IL
   </text> 
  </g> 
  <g id="shape36-152" transform="translate(135.8,-0.8)"> 
   <title>Sheet.36</title> 
   <desc>
    GE
   </desc>   
   <rect x="0" y="12.3886" width="46.4173" height="28.3465" class="st7" /> 
   <text x="17.43" y="28.96" class="st1">
    GE
   </text> 
  </g> 
  <g id="shape26-155" transform="translate(182.217,-0.8)"> 
   <title>Sheet.26</title> 
   <desc>
    IT [7:2]
   </desc>   
   <rect x="0" y="12.3886" width="68.0315" height="28.3465" class="st7" /> 
   <text x="21.57" y="28.96" class="st1">
    IT [7:2]
   </text> 
  </g> 
  <g id="shape27-158" transform="translate(250.249,-0.8)"> 
   <title>Sheet.27</title> 
   <desc>
    E
   </desc>   
   <rect x="0" y="12.3886" width="11.3386" height="28.3465" class="st7" /> 
   <text x="3" y="28.96" class="st1">
    E
   </text> 
  </g> 
  <g id="shape28-161" transform="translate(261.587,-0.8)"> 
   <title>Sheet.28</title> 
   <desc>
    A
   </desc>   
   <rect x="0" y="12.3886" width="11.3386" height="28.3465" class="st7" /> 
   <text x="3" y="28.96" class="st1">
    A
   </text> 
  </g> 
  <g id="shape29-164" transform="translate(272.926,-0.8)"> 
   <title>Sheet.29</title> 
   <desc>
    I
   </desc>   
   <rect x="0" y="12.3886" width="11.3386" height="28.3465" class="st7" /> 
   <text x="4.56" y="28.96" class="st1">
    I
   </text> 
  </g> 
  <g id="shape48-167" transform="translate(284.265,-0.8)"> 
   <title>Sheet.48</title> 
   <desc>
    F
   </desc>   
   <rect x="0" y="12.3886" width="11.3386" height="28.3465" class="st7" /> 
   <text x="3.23" y="28.96" class="st1">
    F
   </text> 
  </g> 
  <g id="shape50-170" transform="translate(295.603,-0.8)"> 
   <title>Sheet.50</title> 
   <desc>
    T
   </desc>   
   <rect x="0" y="12.3886" width="11.3386" height="28.3465" class="st7" /> 
   <text x="3.23" y="28.96" class="st1">
    T
   </text> 
  </g> 
  <g id="shape51-173" transform="translate(306.942,-0.8)"> 
   <title>Sheet.51</title> 
   <desc>
    M
   </desc>   
   <rect x="0" y="12.3886" width="11.3386" height="28.3465" class="st7" /> 
   <text x="2.34" y="28.96" class="st1">
    M
   </text> 
  </g> 
  <g id="shape30-176" transform="translate(317.217,-0.8)"> 
   <title>Sheet.30</title> 
   <desc>
    M [3:0]
   </desc>   
   <rect x="0" y="12.3886" width="46.4173" height="28.3465" class="st7" /> 
   <text x="10.98" y="28.96" class="st1">
    M [3:0]
   </text> 
  </g> 
 </g> 
</svg>