<!DOCTYPE svg PUBLIC "-//W3C//DTD SVG 1.1//EN" "http://www.w3.org/Graphics/SVG/1.1/DTD/svg11.dtd"><svg xmlns:ev="http://www.w3.org/2001/xml-events" xmlns:xlink="http://www.w3.org/1999/xlink" xmlns="http://www.w3.org/2000/svg" xmlns:v="http://schemas.microsoft.com/visio/2003/SVGExtensions/" width="560.03712" height="208.21824" xml:space="preserve" color-interpolation-filters="sRGB" class="st13" version="1.1">  
 <style type="text/css">
	<![CDATA[
		.st1 {fill:#ccffff;stroke:#000000;stroke-linecap:butt;stroke-width:0.5}
		.st2 {fill:#000000;font-family:Arial,Helvetica,sans-serif;font-size:0.666664em}
		.st3 {font-size:1em}
		.st4 {stroke:#ff0000;stroke-linecap:round;stroke-linejoin:round;stroke-width:0.717508}
		.st5 {fill:#1d315b;stroke:#1d315b;stroke-linecap:round;stroke-linejoin:round;stroke-width:0.75}
		.st6 {stroke:none;stroke-linecap:round;stroke-linejoin:round;stroke-width:0.75}
		.st7 {fill:none;stroke:none;stroke-linecap:butt;stroke-width:0.5}
		.st8 {fill:#ff0000;font-size:1em}
		.st9 {fill:#ffc000;font-size:1em}
		.st10 {fill:#d9d9d9;stroke:#000000;stroke-linecap:butt;stroke-width:0.5}
		.st11 {fill:#fdefe3;stroke:#000000;stroke-linecap:butt;stroke-width:0.5}
		.st12 {stroke:#000000;stroke-dasharray:5.76,2.88;stroke-linecap:butt;stroke-width:0.72}
		.st13 {fill:none;fill-rule:evenodd;font-size:12px;overflow:visible;stroke-linecap:square;stroke-miterlimit:3}
	]]>
	</style> 
 <g> 
  <title>Page-1</title>  
  <g id="shape1-1" transform="translate(291.969,-109.299)"> 
   <title>Block.1</title> 
   <desc>
    AArch64 App
   </desc>     
   <rect x="0" y="119.313" width="51.0236" height="36.8504" rx="5.66929" ry="5.66929" class="st1" /> 
   <text x="10.17" y="135.34" class="st2">
    AArch64 
    <tspan x="18.39" dy="9.5999616" class="st3">
     App
    </tspan>
   </text> 
  </g> 
  <g id="shape19-5" transform="translate(286.592,-110.794)"> 
   <title>Sheet.19</title> 
   <path d="M0 122.3 L63.41 156.16" class="st4" /> 
  </g> 
  <g id="shape20-8" transform="translate(286.592,-110.794)"> 
   <title>Sheet.20</title> 
   <path d="M0 156.16 L63.41 122.3" class="st4" /> 
  </g> 
  <g id="shape21-11" transform="translate(218.981,-54.0236)"> 
   <title>Sheet.21</title> 
   <path d="M1.08 54.02 L1.08 58.62 L0 58.62 L0 54.02 L1.08 54.02 L1.08 54.02 Z M1.08 62.11 L1.08 66.84 L0 66.84 L0 62.11
						 L1.08 62.11 L1.08 62.11 Z M1.08 70.33 L1.08 74.93 L0 74.93 L0 70.33 L1.08 70.33 L1.08 70.33 Z M1.08 78.41
						 L1.08 83.01 L0 83.01 L0 78.41 L1.08 78.41 L1.08 78.41 Z M1.08 86.49 L1.08 91.23 L0 91.23 L0 86.49 L1.08
						 86.49 L1.08 86.49 Z M1.08 94.71 L1.08 99.31 L0 99.31 L0 94.71 L1.08 94.71 L1.08 94.71 Z M1.08 102.79 L1.08
						 107.39 L0 107.39 L0 102.79 L1.08 102.79 L1.08 102.79 Z M1.08 110.88 L1.08 115.61 L0 115.61 L0 110.88 L1.08
						 110.88 L1.08 110.88 Z M1.08 119.1 L1.08 123.7 L0 123.7 L0 119.1 L1.08 119.1 L1.08 119.1 Z M1.08 127.18 L1.08
						 131.78 L0 131.78 L0 127.18 L1.08 127.18 L1.08 127.18 Z M1.08 135.26 L1.08 140 L0 140 L0 135.26 L1.08 135.26
						 L1.08 135.26 Z M1.08 143.48 L1.08 148.08 L0 148.08 L0 143.48 L1.08 143.48 L1.08 143.48 Z M1.08 151.57 L1.08
						 156.16 L0 156.16 L0 151.57 L1.08 151.57 L1.08 151.57 Z" class="st5" /> 
  </g> 
  <g id="shape23-13" transform="translate(283.465,-102.213)"> 
   <title>Sheet.23</title> 
   <path d="M1.22 103.63 L1.22 108.23 L0 108.23 L0 103.63 L1.22 103.63 L1.22 103.63 Z M1.22 111.71 L1.22 116.45 L0 116.45
						 L0 111.71 L1.22 111.71 L1.22 111.71 Z M1.22 119.93 L1.22 124.53 L0 124.53 L0 119.93 L1.22 119.93 L1.22 119.93
						 Z M1.22 128.02 L1.22 132.61 L0 132.61 L0 128.02 L1.22 128.02 L1.22 128.02 Z M1.22 136.1 L1.22 140.84 L0
						 140.84 L0 136.1 L1.22 136.1 L1.22 136.1 Z M1.22 144.32 L1.22 148.92 L0 148.92 L0 144.32 L1.22 144.32 L1.22
						 144.32 Z M1.22 152.4 L1.22 156.16 L0 156.16 L0 152.4 L1.22 152.4 L1.22 152.4 Z" class="st5" /> 
  </g> 
  <g id="shape24-15" transform="translate(-1.39888E-014,-127.632)"> 
   <title>Sheet.24</title> 
   <desc>
    EL0
   </desc>   
   <path d="M24.68 143.62 L0 143.62 L0 156.16 L24.68 156.16 L24.68 143.62" class="st6" /> 
   <text x="5.22" y="152.29" class="st2">
    EL0
   </text> 
  </g> 
  <g id="shape25-19" transform="translate(9.43245E-013,-76.0745)"> 
   <title>Sheet.25</title> 
   <desc>
    EL1
   </desc>   
   <path d="M24.68 143.62 L0 143.62 L0 156.16 L24.68 156.16 L24.68 143.62" class="st6" /> 
   <text x="5.22" y="152.29" class="st2">
    EL1
   </text> 
  </g> 
  <g id="shape26-23" transform="translate(1.03717E-012,-24.6561)"> 
   <title>Sheet.26</title> 
   <desc>
    EL2
   </desc>   
   <path d="M24.68 143.62 L0 143.62 L0 156.16 L24.68 156.16 L24.68 143.62" class="st6" /> 
   <text x="5.22" y="152.29" class="st2">
    EL2
   </text> 
  </g> 
  <g id="shape48-27" transform="translate(21.4418,-99.378)"> 
   <title>Sheet.48</title> 
   <desc>
    An AArch64 OS can host a mix of AArch64 and AArch32 applicati...
   </desc>   
   <rect x="0" y="100.775" width="76.1714" height="55.3887" class="st7" /> 
   <text x="16.74" y="106.87" class="st2">
    An AArch64
    <tspan x="16.07" dy="9.5999616" class="st3">
     OS 
    </tspan>
    <tspan class="st8">
     can
    </tspan>
    <tspan class="st9"> 
    </tspan>host
    <tspan x="24.08" dy="9.5999616" class="st3">
     a mix of
    </tspan>
    <tspan x="22.74" dy="9.5999616" class="st3">
     AArch
    </tspan>64 
    <tspan x="14.96" dy="9.5999616" class="st3">
     and AArch
    </tspan>32
    <tspan x="16.96" dy="9.5999616" class="st3">
     applications
    </tspan>
   </text> 
  </g> 
  <g id="shape49-37" transform="translate(339.346,-103.551)"> 
   <title>Sheet.49</title> 
   <desc>
    An AArch32 OS cannot host an AArch64 application
   </desc>   
   <rect x="0" y="106.479" width="80.1811" height="49.685" class="st7" /> 
   <text x="18.75" y="119.32" class="st2">
    An AArch32
    <tspan x="12.52" dy="9.5999616" class="st3">
     OS 
    </tspan>
    <tspan class="st8">
     cannot
    </tspan>
    <tspan class="st9"> 
    </tspan>host
    <tspan x="19.19" dy="9.5999616" class="st3">
     an AArch
    </tspan>64 
    <tspan x="20.97" dy="9.5999616" class="st3">
     application
    </tspan>
   </text> 
  </g> 
  <g id="shape50-45" transform="translate(349.673,-11.5039)"> 
   <title>Sheet.50</title> 
   <desc>
    An AArch32 hypervisor cannot host an AArch64 OS
   </desc>   
   <rect x="0" y="112.148" width="66.0079" height="44.0157" class="st7" /> 
   <text x="11.66" y="122.16" class="st2">
    An AArch32 
    <tspan x="14.55" dy="9.5999616" class="st3">
     hypervisor 
    </tspan>
    <tspan x="12.32" dy="9.5999616" class="st8">
     cannot
    </tspan>
    <tspan class="st9"> 
    </tspan>host 
    <tspan x="5.21" dy="9.5999616" class="st3">
     an AArch
    </tspan>64 OS
   </text> 
  </g> 
  <g id="shape51-52" transform="translate(10.5276,-0.5)"> 
   <title>Sheet.51</title> 
   <desc>
    An AArch64 hypervisor can host an AArch64 and AArch32 OS
   </desc>   
   <rect x="0" y="100.14" width="98" height="56.0236" class="st7" /> 
   <text x="27.65" y="111.35" class="st2">
    An AArch64 
    <tspan x="30.55" dy="9.5999616" class="st3">
     hypervisor 
    </tspan>
    <tspan x="33.88" dy="9.5999616" class="st8">
     can
    </tspan>
    <tspan class="st9"> 
    </tspan>host 
    <tspan x="20.31" dy="9.5999616" class="st3">
     an AArch
    </tspan>64 and 
    <tspan x="26.77" dy="9.5999616" class="st3">
     AArch
    </tspan>32 OS
   </text> 
  </g> 
  <g id="shape3-60" transform="translate(93.5433,-59.6929)"> 
   <title>Sheet.3</title> 
   <desc>
    AArch64 OS
   </desc>   
   <rect x="0" y="119.313" width="116.22" height="36.8504" rx="5.66929" ry="5.66929" class="st10" /> 
   <text x="35.88" y="140.14" class="st2">
    AArch64 OS
   </text> 
  </g> 
  <g id="shape7-63" transform="translate(226.772,-59.6929)"> 
   <title>Sheet.7</title> 
   <desc>
    AArch32 OS
   </desc>   
   <rect x="0" y="119.313" width="116.22" height="36.8504" rx="5.66929" ry="5.66929" class="st10" /> 
   <text x="35.88" y="140.14" class="st2">
    AArch32 OS
   </text> 
  </g> 
  <g id="shape53-66" transform="translate(93.5433,-14.3386)"> 
   <title>Sheet.53</title> 
   <desc>
    Hypervisor
   </desc>   
   <rect x="0" y="119.313" width="249.449" height="36.8504" rx="5.66929" ry="5.66929" class="st11" /> 
   <text x="105.61" y="140.14" class="st2">
    Hypervisor
   </text> 
  </g> 
  <g id="shape4-69" transform="translate(150.236,-102.213)"> 
   <title>Sheet.4</title> 
   <path d="M1.22 103.63 L1.22 108.23 L0 108.23 L0 103.63 L1.22 103.63 L1.22 103.63 Z M1.22 111.71 L1.22 116.45 L0 116.45
						 L0 111.71 L1.22 111.71 L1.22 111.71 Z M1.22 119.93 L1.22 124.53 L0 124.53 L0 119.93 L1.22 119.93 L1.22 119.93
						 Z M1.22 128.02 L1.22 132.61 L0 132.61 L0 128.02 L1.22 128.02 L1.22 128.02 Z M1.22 136.1 L1.22 140.84 L0
						 140.84 L0 136.1 L1.22 136.1 L1.22 136.1 Z M1.22 144.32 L1.22 148.92 L0 148.92 L0 144.32 L1.22 144.32 L1.22
						 144.32 Z M1.22 152.4 L1.22 156.16 L0 156.16 L0 152.4 L1.22 152.4 L1.22 152.4 Z" class="st5" /> 
  </g> 
  <g id="shape54-71" transform="translate(96.378,-54.0236)"> 
   <title>Sheet.54</title> 
   <path d="M0 156.16 L246.61 156.16" class="st12" /> 
  </g> 
  <g id="shape55-74" transform="translate(96.378,-103.551)"> 
   <title>Sheet.55</title> 
   <path d="M0 156.16 L246.61 156.16" class="st12" /> 
  </g> 
  <g id="shape56-77" transform="translate(93.5433,-109.299)"> 
   <title>Block</title> 
   <desc>
    AArch32 App
   </desc>     
   <rect x="0" y="119.313" width="51.0236" height="36.8504" rx="5.66929" ry="5.66929" class="st1" /> 
   <text x="10.17" y="135.34" class="st2">
    AArch32 
    <tspan x="18.39" dy="9.5999616" class="st3">
     App
    </tspan>
   </text> 
  </g> 
  <g id="shape2-81" transform="translate(226.772,-109.299)"> 
   <title>Block.2</title> 
   <desc>
    AArch32 App
   </desc>     
   <rect x="0" y="119.313" width="51.0236" height="36.8504" rx="5.66929" ry="5.66929" class="st1" /> 
   <text x="10.17" y="135.34" class="st2">
    AArch32 
    <tspan x="18.39" dy="9.5999616" class="st3">
     App
    </tspan>
   </text> 
  </g> 
  <g id="shape5-85" transform="translate(158.74,-109.299)"> 
   <title>Block.5</title> 
   <desc>
    AArch64 App
   </desc>     
   <rect x="0" y="119.313" width="51.0236" height="36.8504" rx="5.66929" ry="5.66929" class="st1" /> 
   <text x="10.17" y="135.34" class="st2">
    AArch64 
    <tspan x="18.39" dy="9.5999616" class="st3">
     App
    </tspan>
   </text> 
  </g> 
 </g> 
</svg>